<svg width="64" height="64" viewBox="0 0 64 64" fill="none" xmlns="http://www.w3.org/2000/svg">
<g clip-path="url(#clip0_862_201)">
<path d="M23.7758 -0.0493245C23.8741 -0.0500859 23.9724 -0.0508473 24.0737 -0.0516318C24.4005 -0.0536996 24.7272 -0.0531151 25.0541 -0.0525136C25.2895 -0.0534318 25.5248 -0.0545053 25.7602 -0.0557218C26.3979 -0.0584939 27.0356 -0.0588654 27.6733 -0.0586284C28.2066 -0.0586134 28.7399 -0.0596849 29.2732 -0.0607255C30.5322 -0.0631282 31.7911 -0.0634909 33.0501 -0.0626455C34.3464 -0.0618159 35.6426 -0.0646717 36.9388 -0.0693097C38.0539 -0.0731535 39.1688 -0.0745661 40.2839 -0.0740801C40.9489 -0.0738223 41.6138 -0.0744966 42.2789 -0.0775667C42.9047 -0.0803607 43.5305 -0.0801065 44.1564 -0.0775757C44.3852 -0.0771513 44.614 -0.0777775 44.8427 -0.0795737C46.4097 -0.0910211 47.8355 0.0159398 49.0466 1.14841C49.1404 1.23269 49.2342 1.31696 49.3308 1.40379C50.2818 2.52384 50.8701 3.95596 51.5207 5.26316C51.6312 5.48431 51.7418 5.70545 51.8523 5.92656C52.0837 6.38943 52.3147 6.85246 52.5454 7.31562C52.8368 7.90055 53.1289 8.48515 53.4212 9.06964C55.4589 13.1452 55.4589 13.1452 56.3834 15.0987C56.8456 16.0722 57.3255 17.0366 57.8083 18C57.8492 18.0815 57.89 18.1629 57.9321 18.2469C58.2251 18.8314 58.5186 19.4157 58.8122 20C59.1472 20.6665 59.482 21.3331 59.8161 22C59.8566 22.0807 59.8971 22.1614 59.9388 22.2446C60.5291 23.4233 61.1057 24.608 61.671 25.799C62.1679 26.8451 62.688 27.878 63.2173 28.9082C63.7361 29.9319 64.0454 30.8033 64.0544 31.9531C64.0585 32.0429 64.0626 32.1326 64.0669 32.2251C64.0854 34.1598 62.7055 36.1275 61.8591 37.7969C61.5875 38.3341 61.3164 38.8715 61.0456 39.4092C60.9782 39.543 60.9107 39.6769 60.8412 39.8148C60.41 40.6729 59.9903 41.5356 59.5788 42.4033C59.0551 43.5073 58.516 44.603 57.9685 45.6953C57.9291 45.7738 57.8898 45.8524 57.8492 45.9333C57.5257 46.5786 57.2015 47.2235 56.8774 47.8684C55.9959 49.6222 55.1175 51.3765 54.275 53.1495C53.6054 54.5574 52.9206 55.9577 52.2284 57.3546C52.0216 57.7723 51.8155 58.1903 51.6112 58.6093C51.4088 59.0244 51.2044 59.4385 50.9986 59.852C50.9221 60.0065 50.8462 60.1614 50.7711 60.3167C50.0534 61.7986 49.1627 63.0539 47.6247 63.75C46.9877 63.9631 46.4087 64.0363 45.7418 64.0334C45.6439 64.034 45.5461 64.0345 45.4452 64.0351C45.1192 64.0367 44.7932 64.0365 44.4671 64.0363C44.2326 64.037 43.998 64.0379 43.7635 64.0388C43.1276 64.041 42.4917 64.0416 41.8559 64.0418C41.4583 64.042 41.0606 64.0425 40.663 64.0432C39.2748 64.0455 37.8867 64.0465 36.4985 64.0463C35.2061 64.0462 33.9138 64.0488 32.6214 64.0527C31.5105 64.056 30.3995 64.0574 29.2886 64.0572C28.6256 64.0571 27.9628 64.0578 27.2999 64.0605C26.6761 64.0629 26.0525 64.0629 25.4287 64.0611C25.2005 64.0608 24.9722 64.0614 24.744 64.0629C23.2107 64.0725 21.9017 63.9995 20.7278 62.8994C19.9255 61.9339 19.6071 60.8783 19.6125 59.646C19.6129 59.4844 19.6133 59.3229 19.6138 59.1565C19.6148 58.9871 19.6159 58.8178 19.6169 58.6484C19.6176 58.4766 19.6181 58.3048 19.6186 58.133C19.6201 57.7137 19.6222 57.2943 19.6247 56.875C19.5416 56.8754 19.4585 56.8759 19.3728 56.8764C17.3455 56.8874 15.3182 56.8957 13.2909 56.9009C12.3104 56.9035 11.33 56.907 10.3496 56.9127C9.49459 56.9177 8.63957 56.9209 7.78452 56.922C7.33223 56.9227 6.87998 56.9242 6.4277 56.9278C5.92145 56.9319 5.41527 56.932 4.90901 56.9317C4.76083 56.9335 4.61266 56.9353 4.45999 56.9372C3.1914 56.9309 2.04091 56.6704 1.09837 55.7744C0.339005 54.8426 -0.0144762 53.8123 -0.0177383 52.6249C-0.0184497 52.4734 -0.0191626 52.322 -0.0198956 52.166C-0.0200571 51.9984 -0.020205 51.8308 -0.0203419 51.6632C-0.0209335 51.4848 -0.0215766 51.3065 -0.0222683 51.1281C-0.0240043 50.6378 -0.0249553 50.1476 -0.0257664 49.6574C-0.0265635 49.2369 -0.0278209 48.8164 -0.0290852 48.3959C-0.0332477 47.0108 -0.0359417 45.6256 -0.0382366 44.2404C-0.0388362 43.8797 -0.0394586 43.5189 -0.0400867 43.1582C-0.0439581 40.9172 -0.047293 38.6762 -0.0493889 36.4352C-0.0498826 35.9163 -0.0503828 35.3973 -0.0508919 34.8784C-0.0510179 34.7495 -0.0511435 34.6205 -0.0512733 34.4876C-0.0533988 32.3988 -0.0585386 30.3099 -0.0648956 28.2211C-0.0713708 26.0757 -0.0750061 23.9304 -0.0759125 21.785C-0.0764948 20.5808 -0.0783354 19.3766 -0.0833817 18.1723C-0.0876744 17.1467 -0.0894085 16.1211 -0.0878277 15.0954C-0.0871006 14.5724 -0.0875754 14.0495 -0.0913506 13.5265C-0.0947841 13.0469 -0.0946983 12.5675 -0.0919113 12.0879C-0.0913215 11.8339 -0.0944046 11.5799 -0.0976562 11.3259C-0.0856696 10.1528 0.1755 9.14658 0.971642 8.25011C1.76676 7.50405 2.72963 7.10892 3.81127 7.10994C3.95079 7.10977 4.09031 7.1096 4.23406 7.10942C4.38655 7.10987 4.53904 7.11032 4.69615 7.11079C4.85715 7.11077 5.01816 7.11075 5.18405 7.11073C5.62512 7.11069 6.06619 7.11143 6.50726 7.1123C6.96837 7.11308 7.42949 7.11316 7.8906 7.11331C8.76359 7.11369 9.63657 7.11472 10.5096 7.11597C11.5035 7.11737 12.4975 7.11806 13.4914 7.11869C15.5358 7.11999 17.5803 7.12219 19.6247 7.12498C19.6218 6.97008 19.6218 6.97008 19.6188 6.81205C19.6123 6.42299 19.6077 6.03397 19.6041 5.64487C19.6014 5.39604 19.5966 5.14722 19.5918 4.89841C19.5807 3.44234 19.7894 2.25659 20.7497 1.12498C21.62 0.299791 22.5824 -0.0581618 23.7758 -0.0493245ZM21.8674 2.25437C21.8105 2.338 21.7537 2.42163 21.695 2.50779C21.6359 2.59174 21.5768 2.67569 21.5159 2.76218C21.2903 3.14231 21.2342 3.45549 21.2355 3.88801C21.2356 3.99059 21.2356 4.09316 21.2356 4.19885C21.2362 4.30902 21.2369 4.41919 21.2375 4.53269C21.2377 4.64592 21.2379 4.75914 21.2381 4.87579C21.2388 5.23751 21.2403 5.59921 21.2419 5.96091C21.2426 6.20611 21.2431 6.45131 21.2436 6.69651C21.245 7.29767 21.2472 7.89882 21.2497 8.49998C21.4078 8.50008 21.4078 8.50008 21.5691 8.50018C24.1345 8.50205 26.7 8.50736 29.2654 8.51649C30.5061 8.52082 31.7467 8.52399 32.9873 8.52442C34.0689 8.5248 35.1503 8.52737 36.2318 8.53254C36.8044 8.5352 37.3768 8.53678 37.9493 8.53575C38.4886 8.5348 39.0278 8.53679 39.5671 8.54098C39.7646 8.54201 39.9621 8.54198 40.1597 8.5408C42.1181 8.53024 42.1181 8.53024 42.8747 9.24998C43.3827 9.77311 43.7017 10.3334 44.0193 10.9804C44.0672 11.0759 44.1151 11.1713 44.1644 11.2697C44.3217 11.5841 44.4776 11.8992 44.6335 12.2143C44.7442 12.4362 44.8549 12.6581 44.9657 12.8799C45.1981 13.3456 45.4298 13.8116 45.661 14.2779C45.9531 14.8669 46.2462 15.4554 46.5397 16.0437C47.5433 18.0554 48.5461 20.0671 49.5079 22.0991C49.9737 23.0795 50.4585 24.0501 50.9455 25.02C51.0068 25.1421 51.0068 25.1421 51.0693 25.2666C51.447 26.0187 51.8254 26.7705 52.2042 27.522C52.4145 27.9392 52.6244 28.3567 52.8339 28.7744C52.9127 28.9312 52.9917 29.088 53.0708 29.2446C53.1807 29.4618 53.2898 29.6794 53.3989 29.897C53.4609 30.0199 53.5228 30.1428 53.5866 30.2694C53.9669 31.0981 54.196 31.8892 53.9091 32.782C53.5768 33.5859 53.2154 34.3724 52.8362 35.1553C52.7715 35.2894 52.7068 35.4235 52.6401 35.5617C51.8162 37.2632 50.966 38.9516 50.1169 40.6406C49.1947 42.4752 48.2741 44.3095 47.3925 46.1641C46.7537 47.5073 46.1039 48.8451 45.4448 50.1785C45.2519 50.5688 45.06 50.9595 44.87 51.3512C44.6458 51.8135 44.4179 52.2739 44.1897 52.7344C44.1226 52.8739 44.0555 53.0135 43.9864 53.1573C43.4669 54.1937 42.8823 54.9965 41.7497 55.375C41.3527 55.4077 41.3527 55.4077 40.8963 55.4098C40.8121 55.4105 40.7278 55.4112 40.641 55.412C40.3597 55.4141 40.0783 55.4145 39.7969 55.4148C39.5949 55.416 39.3928 55.4173 39.1908 55.4186C38.6428 55.422 38.0948 55.4239 37.5468 55.4256C36.9739 55.4275 36.401 55.4309 35.8282 55.4341C34.7436 55.4399 33.659 55.4445 32.5744 55.4487C31.3395 55.4534 30.1046 55.4596 28.8698 55.4659C26.3298 55.4788 23.7897 55.49 21.2497 55.5C21.2373 56.2115 21.2283 56.923 21.2223 57.6347C21.2198 57.8764 21.2164 58.1182 21.212 58.3599C21.2059 58.7087 21.2031 59.0574 21.2009 59.4062C21.1983 59.5132 21.1957 59.6201 21.1931 59.7303C21.1928 60.5811 21.3975 61.2624 21.9997 61.8823C22.0822 61.9392 22.1647 61.9961 22.2497 62.0547C22.3735 62.1434 22.3735 62.1434 22.4997 62.2339C23.0345 62.5357 23.5747 62.5183 24.1755 62.5175C24.269 62.5179 24.3626 62.5183 24.459 62.5187C24.7726 62.5197 25.0863 62.5199 25.4 62.5201C25.6248 62.5207 25.8497 62.5213 26.0745 62.522C26.6856 62.5236 27.2967 62.5244 27.9078 62.525C28.2897 62.5254 28.6716 62.5259 29.0536 62.5264C30.249 62.5281 31.4444 62.5294 32.6398 62.5298C34.0189 62.5304 35.398 62.5326 36.777 62.5362C37.8435 62.5389 38.91 62.5402 39.9765 62.5403C40.6132 62.5405 41.2499 62.5412 41.8866 62.5434C42.4859 62.5455 43.0851 62.5458 43.6844 62.5447C43.9038 62.5446 44.1233 62.5451 44.3427 62.5464C45.8835 62.5545 47.0777 62.526 48.2434 61.4157C48.6728 60.9287 48.9489 60.3921 49.2292 59.81C49.2921 59.6847 49.3549 59.5593 49.4197 59.4301C49.6155 59.0379 49.8078 58.6441 49.9997 58.25C50.1196 58.0078 50.2396 57.7657 50.3597 57.5237C50.6633 56.9103 50.9636 56.2953 51.2629 55.6798C52.5748 52.9819 53.9088 50.2954 55.2569 47.6154C55.8635 46.408 56.4628 45.1982 57.0422 43.9775C57.5628 42.8813 58.098 41.7929 58.6418 40.708C58.6803 40.6313 58.7187 40.5545 58.7583 40.4755C59.0338 39.9262 59.3097 39.3771 59.5857 38.8281C60.801 36.4208 60.801 36.4208 61.9787 33.9951C62.0185 33.9116 62.0583 33.8282 62.0993 33.7422C62.5171 32.8497 62.6846 31.9922 62.3954 31.0267C61.9394 29.8529 61.3912 28.7369 60.823 27.6142C60.7206 27.4105 60.6183 27.2067 60.5161 27.0029C60.248 26.469 59.9792 25.9355 59.71 25.4021C59.2311 24.4525 58.7536 23.5021 58.2761 22.5517C58.1989 22.3981 58.1989 22.3981 58.12 22.2413C57.4847 20.9771 56.8594 19.7093 56.2545 18.4301C55.7794 17.4284 55.2855 16.4364 54.7888 15.4453C54.7466 15.3611 54.7044 15.2769 54.661 15.1902C54.3576 14.5849 54.0537 13.9799 53.7497 13.375C52.6518 11.1899 51.5602 9.00349 50.5136 6.79317C50.1926 6.11537 49.868 5.43947 49.5388 4.7656C49.4759 4.63299 49.413 4.50038 49.3481 4.36375C48.7598 3.16642 48.0551 2.0857 46.7497 1.62498C46.2778 1.47291 45.809 1.48145 45.3184 1.48158C45.1772 1.48089 45.1772 1.48089 45.0331 1.48019C44.7174 1.47881 44.4017 1.47833 44.086 1.47785C43.8598 1.47707 43.6335 1.47624 43.4072 1.47536C42.664 1.47273 41.9207 1.47144 41.1775 1.47019C40.9215 1.46969 40.6655 1.46917 40.4095 1.46865C39.207 1.46627 38.0044 1.46449 36.8019 1.46345C35.4141 1.46222 34.0264 1.45893 32.6387 1.45388C31.5658 1.45011 30.4928 1.44826 29.4199 1.44785C28.7792 1.44755 28.1385 1.44644 27.4978 1.44329C26.895 1.44038 26.2921 1.43985 25.6892 1.44114C25.4683 1.4412 25.2474 1.44041 25.0265 1.43869C23.3054 1.39389 23.3054 1.39389 21.8674 2.25437ZM22.6404 21.5312C22.4863 21.6269 22.3322 21.7224 22.178 21.8177C21.9504 21.9585 21.7228 22.0994 21.4957 22.2409C21.0834 22.4975 20.6688 22.7486 20.2488 22.9922C20.1621 23.0426 20.0753 23.093 19.986 23.1449C19.7696 23.2698 19.5527 23.3937 19.3357 23.5176C18.798 23.8895 18.5406 24.2191 18.3747 24.8515C18.3273 25.4473 18.5267 25.8985 18.8747 26.375C19.2645 26.6848 19.626 26.8518 20.1247 26.875C20.9547 26.616 21.6278 26.2099 22.3513 25.7344C22.5602 25.5983 22.7694 25.4625 22.9787 25.3271C23.0699 25.2673 23.1611 25.2075 23.255 25.1459C23.4997 25 23.4997 25 23.8747 24.875C23.8747 29.825 23.8747 34.775 23.8747 39.875C22.4722 39.875 21.0697 39.875 19.6247 39.875C18.9672 40.1728 18.9672 40.1728 18.4997 40.625C18.3301 41.1338 18.3093 41.5929 18.3747 42.125C18.6558 42.6872 18.9316 42.9886 19.4997 43.25C19.902 43.305 20.3008 43.3025 20.7062 43.3005C20.8271 43.3013 20.9479 43.3022 21.0723 43.3031C21.4712 43.3054 21.8699 43.3049 22.2688 43.3042C22.5463 43.3047 22.8239 43.3054 23.1015 43.3062C23.6831 43.3073 24.2647 43.307 24.8463 43.3057C25.5912 43.3043 26.3362 43.3068 27.0811 43.3105C27.6543 43.3128 28.2275 43.3127 28.8006 43.312C29.0753 43.312 29.3499 43.3128 29.6246 43.3143C30.0088 43.3162 30.3929 43.3148 30.7771 43.3127C30.8903 43.3139 31.0035 43.3151 31.1201 43.3164C31.8068 43.3083 32.2082 43.2134 32.7497 42.75C33.115 42.202 33.1947 41.7778 33.1247 41.125C32.9257 40.6076 32.7342 40.2789 32.2497 40C31.7952 39.8476 31.3569 39.8608 30.8806 39.8628C30.7981 39.8629 30.7155 39.8631 30.6305 39.8633C30.3682 39.864 30.1058 39.8656 29.8435 39.8672C29.6651 39.8678 29.4867 39.8684 29.3083 39.8689C28.8721 39.8702 28.4359 39.8724 27.9997 39.875C28.0001 39.7798 28.0004 39.6846 28.0008 39.5865C28.0091 37.2694 28.0153 34.9523 28.0192 32.6351C28.0211 31.5146 28.0237 30.394 28.028 29.2734C28.0318 28.2966 28.0342 27.3199 28.035 26.343C28.0355 25.8259 28.0367 25.3089 28.0394 24.7918C28.0419 24.3047 28.0427 23.8177 28.0422 23.3307C28.0423 23.1522 28.043 22.9738 28.0444 22.7954C28.0779 21.3648 28.0779 21.3648 27.4216 20.1406C25.752 19.3497 24.0273 20.659 22.6404 21.5312Z" fill="#00B4FE"/>
</g>
<defs>
<clipPath id="clip0_862_201">
<rect width="64" height="64" fill="white"/>
</clipPath>
</defs>
</svg>
